<svg width="170" height="189" viewBox="0 0 170 189" fill="none" xmlns="http://www.w3.org/2000/svg">
<path d="M31.9105 0C23.2623 0 15.7392 3.11414 9.33957 9.34081C3.1129 15.5675 0 23.0908 0 31.9119V157.224C0 165.872 3.1129 173.309 9.33957 179.536C15.7392 185.763 23.2623 188.877 31.9105 188.877H106.371C123.667 188.877 138.455 182.737 150.736 170.456C163.189 158.003 169.417 143.127 169.417 125.831C169.417 110.61 164.833 97.2055 155.666 85.6171C146.499 73.8555 134.737 66.5912 120.381 63.8239C120.381 46.1817 114.414 31.2191 102.479 18.9389C90.5447 6.65846 75.9309 0.432481 58.6346 0.259302L31.9105 0Z" fill="url(#paint0_linear_102_11)"/>
<defs>
<linearGradient id="paint0_linear_102_11" x1="173.589" y1="-24.3289" x2="-13.9567" y2="-15.8894" gradientUnits="userSpaceOnUse">
<stop stop-color="#2C2C2C"/>
<stop offset="1" stop-color="#707070"/>
</linearGradient>
</defs>
</svg>
