<svg width="749" height="156" viewBox="0 0 749 156" fill="none" xmlns="http://www.w3.org/2000/svg">
<path d="M26.2324 0C19.1231 0 12.9386 2.56002 7.67771 7.67872C2.559 12.7974 0 18.9821 0 26.2336V129.248C0 136.357 2.559 142.471 7.67771 147.59C12.9386 152.708 19.1231 155.268 26.2324 155.268H87.4435C101.662 155.268 113.819 150.221 123.914 140.126C134.152 129.888 139.271 117.659 139.271 103.441C139.271 90.9281 135.503 79.909 127.967 70.3826C120.431 60.7139 110.762 54.7421 98.961 52.4672C98.961 37.9642 94.0551 25.664 84.2443 15.569C74.4334 5.47367 62.4199 0.355526 48.2013 0.213162L26.2324 0Z" fill="url(#paint0_linear_7_17)"/>
<path d="M166.207 42C160.93 42 156.428 43.8621 152.703 47.5878C149.081 51.3119 147.271 55.8129 147.271 61.0902V136.06C147.271 141.234 149.081 145.686 152.703 149.411C156.428 153.138 160.93 155 166.207 155C171.485 155 175.935 153.138 179.557 149.411C183.282 145.686 185.145 141.234 185.145 136.06V61.0902C185.145 55.8129 183.282 51.3119 179.557 47.5878C175.935 43.8621 171.485 42 166.207 42Z" fill="url(#paint1_linear_7_17)"/>
<path d="M212.236 42C206.959 42 202.458 43.8626 198.732 47.5878C195.007 51.313 193.145 55.8145 193.145 61.0919V136.063C193.145 141.237 195.007 145.687 198.732 149.413C202.458 153.138 206.959 155 212.236 155H269.201C274.375 155 278.825 153.138 282.551 149.413C286.276 145.687 288.139 141.237 288.139 136.063V61.0919C288.139 55.8145 286.276 51.313 282.551 47.5878C278.825 43.8626 274.375 42 269.201 42C263.924 42 259.422 43.8626 255.697 47.5878C251.972 51.313 250.11 55.8145 250.11 61.0919V69.1644C233.656 51.0553 221.032 42 212.236 42Z" fill="url(#paint2_linear_7_17)"/>
<path d="M352.715 42C337.111 42 323.78 47.529 312.723 58.586C301.666 69.6432 296.139 82.9721 296.139 98.5759C296.139 114.18 301.666 127.512 312.723 138.569C323.78 149.626 337.111 155.102 352.715 154.999L384.647 154.838C389.813 154.838 394.256 152.976 397.977 149.258C401.697 145.538 403.557 141.095 403.557 135.928V119.653C403.557 114.486 401.697 110.197 397.977 106.787C394.36 103.377 389.917 101.672 384.647 101.672H378.602C375.812 101.672 374.416 100.535 374.416 98.2618C374.416 95.575 375.812 94.2313 378.602 94.2313L377.826 94.3907C383.096 94.3907 387.54 92.584 391.157 88.9673C394.876 85.2472 396.736 80.7513 396.736 75.4811C396.736 68.6607 394.463 63.2345 389.916 59.2043C377.102 47.7341 364.702 42 352.715 42Z" fill="url(#paint3_linear_7_17)"/>
<path d="M468.057 42C452.474 42 439.161 47.5212 428.119 58.5632C417.077 69.6052 411.557 82.9167 411.557 98.4994C411.557 114.082 417.077 127.395 428.119 138.437C439.161 149.479 452.474 155 468.057 155C483.743 155 497.055 149.479 507.994 138.437C519.036 127.395 524.557 114.082 524.557 98.4994C524.557 82.9167 519.036 69.6052 507.994 58.5632C496.952 47.5212 483.64 42 468.057 42Z" fill="url(#paint4_linear_7_17)"/>
<path d="M605.713 0C598.462 0 592.275 2.56002 587.157 7.67872C582.18 12.7974 579.692 18.9821 579.692 26.2336L579.905 91.7102C574.075 83.1791 566.895 78.9124 558.364 78.9124C551.254 78.9124 545.141 81.5451 540.022 86.8059C535.045 92.0667 532.557 98.2513 532.557 105.361C532.557 119.01 537.392 130.741 547.061 140.552C556.73 150.363 568.317 155.268 581.824 155.268C595.474 155.268 607.276 150.503 617.229 140.977C627.182 131.308 632.159 119.65 632.159 106V26.2336C632.159 18.9821 629.529 12.7974 624.268 7.67872C619.149 2.56002 612.965 0 605.713 0Z" fill="url(#paint5_linear_7_17)"/>
<path d="M694.331 0C679.543 0 666.889 5.26027 656.368 15.7821C645.846 26.3038 640.584 38.9587 640.584 53.7462C640.584 65.1209 643.713 75.358 649.969 84.4578C656.368 93.4156 664.614 99.6729 674.709 103.228H666.178C658.927 103.228 652.742 105.786 647.623 110.905C642.647 115.881 640.159 121.995 640.159 129.246C640.159 136.356 642.647 142.47 647.623 147.588C652.742 152.707 658.927 155.268 666.178 155.268H694.331C709.118 155.268 721.774 150.006 732.295 139.485C742.817 128.963 748.077 116.237 748.077 101.307C748.077 89.3638 744.239 78.914 736.561 69.9563C729.338 61.4584 719.997 55.5693 708.541 52.2915L708.543 52.2524H715.659C722.91 52.2524 729.097 49.694 734.215 44.5753C739.334 39.4566 741.893 33.3422 741.893 26.2336C741.893 18.9821 739.334 12.7974 734.215 7.67872C729.097 2.56002 722.91 0 715.659 0H694.331ZM655.424 77.1469L655.489 77.1957L655.5 77.2608L655.424 77.1469Z" fill="url(#paint6_linear_7_17)"/>
<defs>
<linearGradient id="paint0_linear_7_17" x1="142.701" y1="-19.9999" x2="-11.4732" y2="-13.0621" gradientUnits="userSpaceOnUse">
<stop stop-color="#2C2C2C"/>
<stop offset="1" stop-color="#707070"/>
</linearGradient>
<linearGradient id="paint1_linear_7_17" x1="186.077" y1="27.4446" x2="144.078" y2="28.1508" gradientUnits="userSpaceOnUse">
<stop stop-color="#2C2C2C"/>
<stop offset="1" stop-color="#707070"/>
</linearGradient>
<linearGradient id="paint2_linear_7_17" x1="290.478" y1="27.4446" x2="185.293" y2="31.8807" gradientUnits="userSpaceOnUse">
<stop stop-color="#2C2C2C"/>
<stop offset="1" stop-color="#707070"/>
</linearGradient>
<linearGradient id="paint3_linear_7_17" x1="406.202" y1="27.4446" x2="287.319" y2="33.1141" gradientUnits="userSpaceOnUse">
<stop stop-color="#2C2C2C"/>
<stop offset="1" stop-color="#707070"/>
</linearGradient>
<linearGradient id="paint4_linear_7_17" x1="527.34" y1="27.4446" x2="402.309" y2="33.7171" gradientUnits="userSpaceOnUse">
<stop stop-color="#2C2C2C"/>
<stop offset="1" stop-color="#707070"/>
</linearGradient>
<linearGradient id="paint5_linear_7_17" x1="634.612" y1="-19.9999" x2="524.243" y2="-16.448" gradientUnits="userSpaceOnUse">
<stop stop-color="#2C2C2C"/>
<stop offset="1" stop-color="#707070"/>
</linearGradient>
<linearGradient id="paint6_linear_7_17" x1="750.734" y1="-19.9999" x2="631.172" y2="-15.8309" gradientUnits="userSpaceOnUse">
<stop stop-color="#2C2C2C"/>
<stop offset="1" stop-color="#707070"/>
</linearGradient>
</defs>
</svg>
